<svg width="159" height="22" viewBox="0 0 241 30" fill="none" xmlns="http://www.w3.org/2000/svg">
<path d="M19.38 23.68H8.26L6.42 29H0.54L10.58 1.04H17.1L27.14 29H21.22L19.38 23.68ZM17.86 19.2L13.82 7.52L9.78 19.2H17.86ZM50.3328 9.48C49.6928 8.30667 48.8128 7.41333 47.6928 6.8C46.5728 6.18667 45.2661 5.88 43.7728 5.88C42.1195 5.88 40.6528 6.25333 39.3728 7C38.0928 7.74667 37.0928 8.81333 36.3728 10.2C35.6528 11.5867 35.2928 13.1867 35.2928 15C35.2928 16.8667 35.6528 18.4933 36.3728 19.88C37.1195 21.2667 38.1461 22.3333 39.4528 23.08C40.7595 23.8267 42.2795 24.2 44.0128 24.2C46.1461 24.2 47.8928 23.64 49.2528 22.52C50.6128 21.3733 51.5061 19.7867 51.9328 17.76H42.3328V13.48H57.4528V18.36C57.0795 20.3067 56.2795 22.1067 55.0528 23.76C53.8261 25.4133 52.2395 26.7467 50.2928 27.76C48.3728 28.7467 46.2128 29.24 43.8128 29.24C41.1195 29.24 38.6795 28.64 36.4928 27.44C34.3328 26.2133 32.6261 24.52 31.3728 22.36C30.1461 20.2 29.5328 17.7467 29.5328 15C29.5328 12.2533 30.1461 9.8 31.3728 7.64C32.6261 5.45333 34.3328 3.76 36.4928 2.56C38.6795 1.33333 41.1061 0.719999 43.7728 0.719999C46.9195 0.719999 49.6528 1.49333 51.9728 3.04C54.2928 4.56 55.8928 6.70667 56.7728 9.48H50.3328ZM75.9959 29L69.8359 18.12H67.1959V29H61.5959V1.08H72.0759C74.2359 1.08 76.0759 1.46667 77.5959 2.24C79.1159 2.98667 80.2493 4.01333 80.9959 5.32C81.7693 6.6 82.1559 8.04 82.1559 9.64C82.1559 11.48 81.6226 13.1467 80.5559 14.64C79.4893 16.1067 77.9026 17.12 75.7959 17.68L82.4759 29H75.9959ZM67.1959 13.92H71.8759C73.3959 13.92 74.5293 13.56 75.2759 12.84C76.0226 12.0933 76.3959 11.0667 76.3959 9.76C76.3959 8.48 76.0226 7.49333 75.2759 6.8C74.5293 6.08 73.3959 5.72 71.8759 5.72H67.1959V13.92ZM100.181 29.28C97.5676 29.28 95.1676 28.6667 92.9809 27.44C90.7943 26.2133 89.0609 24.52 87.7809 22.36C86.5009 20.1733 85.8609 17.7067 85.8609 14.96C85.8609 12.24 86.5009 9.8 87.7809 7.64C89.0609 5.45333 90.7943 3.74666 92.9809 2.52C95.1676 1.29333 97.5676 0.68 100.181 0.68C102.821 0.68 105.221 1.29333 107.381 2.52C109.568 3.74666 111.288 5.45333 112.541 7.64C113.821 9.8 114.461 12.24 114.461 14.96C114.461 17.7067 113.821 20.1733 112.541 22.36C111.288 24.52 109.568 26.2133 107.381 27.44C105.194 28.6667 102.794 29.28 100.181 29.28ZM100.181 24.28C101.861 24.28 103.341 23.9067 104.621 23.16C105.901 22.3867 106.901 21.2933 107.621 19.88C108.341 18.4667 108.701 16.8267 108.701 14.96C108.701 13.0933 108.341 11.4667 107.621 10.08C106.901 8.66667 105.901 7.58667 104.621 6.84C103.341 6.09333 101.861 5.72 100.181 5.72C98.5009 5.72 97.0076 6.09333 95.7009 6.84C94.4209 7.58667 93.4209 8.66667 92.7009 10.08C91.9809 11.4667 91.6209 13.0933 91.6209 14.96C91.6209 16.8267 91.9809 18.4667 92.7009 19.88C93.4209 21.2933 94.4209 22.3867 95.7009 23.16C97.0076 23.9067 98.5009 24.28 100.181 24.28Z" fill="#E01E1F"/>
<path d="M117.267 15C117.267 12.2533 117.881 9.8 119.107 7.64C120.361 5.45333 122.054 3.76 124.187 2.56C126.347 1.33333 128.761 0.719999 131.427 0.719999C134.547 0.719999 137.281 1.52 139.627 3.12C141.974 4.72 143.614 6.93333 144.547 9.76H138.107C137.467 8.42667 136.561 7.42667 135.387 6.76C134.241 6.09333 132.907 5.76 131.387 5.76C129.761 5.76 128.307 6.14667 127.027 6.92C125.774 7.66666 124.787 8.73333 124.067 10.12C123.374 11.5067 123.027 13.1333 123.027 15C123.027 16.84 123.374 18.4667 124.067 19.88C124.787 21.2667 125.774 22.3467 127.027 23.12C128.307 23.8667 129.761 24.24 131.387 24.24C132.907 24.24 134.241 23.9067 135.387 23.24C136.561 22.5467 137.467 21.5333 138.107 20.2H144.547C143.614 23.0533 141.974 25.28 139.627 26.88C137.307 28.4533 134.574 29.24 131.427 29.24C128.761 29.24 126.347 28.64 124.187 27.44C122.054 26.2133 120.361 24.52 119.107 22.36C117.881 20.2 117.267 17.7467 117.267 15ZM154.93 24.56H164.13V29H149.33V1.08H154.93V24.56ZM184.81 23.68H173.69L171.85 29H165.97L176.01 1.04H182.53L192.57 29H186.65L184.81 23.68ZM183.29 19.2L179.25 7.52L175.21 19.2H183.29ZM205.963 29.28C204.016 29.28 202.256 28.9467 200.683 28.28C199.136 27.6133 197.909 26.6533 197.003 25.4C196.096 24.1467 195.629 22.6667 195.603 20.96H201.603C201.683 22.1067 202.083 23.0133 202.803 23.68C203.549 24.3467 204.563 24.68 205.843 24.68C207.149 24.68 208.176 24.3733 208.923 23.76C209.669 23.12 210.043 22.2933 210.043 21.28C210.043 20.4533 209.789 19.7733 209.283 19.24C208.776 18.7067 208.136 18.2933 207.363 18C206.616 17.68 205.576 17.3333 204.243 16.96C202.429 16.4267 200.949 15.9067 199.803 15.4C198.683 14.8667 197.709 14.08 196.883 13.04C196.083 11.9733 195.683 10.56 195.683 8.8C195.683 7.14667 196.096 5.70667 196.923 4.48C197.749 3.25333 198.909 2.32 200.403 1.68C201.896 1.01333 203.603 0.68 205.523 0.68C208.403 0.68 210.736 1.38667 212.523 2.8C214.336 4.18667 215.336 6.13333 215.523 8.64H209.363C209.309 7.68 208.896 6.89333 208.123 6.28C207.376 5.64 206.376 5.32 205.123 5.32C204.029 5.32 203.149 5.6 202.483 6.16C201.843 6.72 201.523 7.53333 201.523 8.6C201.523 9.34667 201.763 9.97333 202.243 10.48C202.749 10.96 203.363 11.36 204.083 11.68C204.829 11.9733 205.869 12.32 207.203 12.72C209.016 13.2533 210.496 13.7867 211.643 14.32C212.789 14.8533 213.776 15.6533 214.603 16.72C215.429 17.7867 215.843 19.1867 215.843 20.92C215.843 22.4133 215.456 23.8 214.682 25.08C213.909 26.36 212.776 27.3867 211.283 28.16C209.789 28.9067 208.016 29.28 205.963 29.28ZM230.338 29.28C228.391 29.28 226.631 28.9467 225.058 28.28C223.511 27.6133 222.284 26.6533 221.378 25.4C220.471 24.1467 220.004 22.6667 219.978 20.96H225.978C226.058 22.1067 226.458 23.0133 227.178 23.68C227.924 24.3467 228.938 24.68 230.218 24.68C231.524 24.68 232.551 24.3733 233.298 23.76C234.044 23.12 234.418 22.2933 234.418 21.28C234.418 20.4533 234.164 19.7733 233.658 19.24C233.151 18.7067 232.511 18.2933 231.738 18C230.991 17.68 229.951 17.3333 228.618 16.96C226.804 16.4267 225.324 15.9067 224.178 15.4C223.058 14.8667 222.084 14.08 221.258 13.04C220.458 11.9733 220.058 10.56 220.058 8.8C220.058 7.14667 220.471 5.70667 221.298 4.48C222.124 3.25333 223.284 2.32 224.778 1.68C226.271 1.01333 227.978 0.68 229.898 0.68C232.778 0.68 235.111 1.38667 236.898 2.8C238.711 4.18667 239.711 6.13333 239.898 8.64H233.738C233.684 7.68 233.271 6.89333 232.498 6.28C231.751 5.64 230.751 5.32 229.498 5.32C228.404 5.32 227.524 5.6 226.858 6.16C226.218 6.72 225.898 7.53333 225.898 8.6C225.898 9.34667 226.138 9.97333 226.618 10.48C227.124 10.96 227.738 11.36 228.458 11.68C229.204 11.9733 230.244 12.32 231.578 12.72C233.391 13.2533 234.871 13.7867 236.018 14.32C237.164 14.8533 238.151 15.6533 238.978 16.72C239.804 17.7867 240.218 19.1867 240.218 20.92C240.218 22.4133 239.831 23.8 239.057 25.08C238.284 26.36 237.151 27.3867 235.658 28.16C234.164 28.9067 232.391 29.28 230.338 29.28Z" fill="black"/>
</svg>
