<svg width="159" height="22" viewBox="0 0 257 30" fill="none" xmlns="http://www.w3.org/2000/svg">
<path d="M24.9 14.84C24.9 17.64 24.3133 20.1067 23.14 22.24C21.9667 24.3733 20.26 26.04 18.02 27.24C15.8067 28.4133 13.1667 29 10.1 29H0.0600001V0.759999H10.1C13.1667 0.759999 15.8067 1.34667 18.02 2.52C20.26 3.66667 21.9667 5.30667 23.14 7.44C24.3133 9.54667 24.9 12.0133 24.9 14.84ZM9.62 23.96C12.66 23.96 15.0067 23.16 16.66 21.56C18.34 19.96 19.18 17.72 19.18 14.84C19.18 11.9333 18.34 9.68 16.66 8.08C15.0067 6.48 12.66 5.68 9.62 5.68H5.7V23.96H9.62ZM34.7625 5.24V12.56H44.7625V16.88H34.7625V24.48H45.9625V29H29.1225V0.759999H45.9625V5.24H34.7625ZM62.8981 0.479998C66.4181 0.479998 69.3381 1.38666 71.6581 3.2C73.9781 5.01333 75.5115 7.48 76.2581 10.6H70.3381C69.7248 9.08 68.7648 7.88 67.4581 7C66.1781 6.12 64.6315 5.68 62.8181 5.68C61.3248 5.68 59.9781 6.05333 58.7781 6.8C57.5781 7.54667 56.6448 8.61333 55.9781 10C55.3115 11.3867 54.9781 13.0133 54.9781 14.88C54.9781 16.72 55.3115 18.3333 55.9781 19.72C56.6448 21.1067 57.5781 22.1733 58.7781 22.92C59.9781 23.6667 61.3248 24.04 62.8181 24.04C64.6315 24.04 66.1781 23.6 67.4581 22.72C68.7648 21.84 69.7248 20.64 70.3381 19.12H76.2581C75.5115 22.24 73.9781 24.7067 71.6581 26.52C69.3381 28.3333 66.4181 29.24 62.8981 29.24C60.2048 29.24 57.8181 28.64 55.7381 27.44C53.6848 26.2133 52.0848 24.5067 50.9381 22.32C49.8181 20.1333 49.2581 17.6533 49.2581 14.88C49.2581 12.08 49.8181 9.58667 50.9381 7.4C52.0848 5.21333 53.6848 3.52 55.7381 2.32C57.7915 1.09333 60.1781 0.479998 62.8981 0.479998ZM93.7297 0.359999C96.3697 0.359999 98.7564 0.973333 100.89 2.2C103.05 3.42667 104.743 5.14667 105.97 7.36C107.223 9.54667 107.85 12.0267 107.85 14.8C107.85 17.5733 107.223 20.0667 105.97 22.28C104.743 24.4933 103.05 26.2133 100.89 27.44C98.7564 28.6667 96.3697 29.28 93.7297 29.28C91.0897 29.28 88.6897 28.6667 86.5297 27.44C84.3964 26.2133 82.703 24.4933 81.4497 22.28C80.223 20.0667 79.6097 17.5733 79.6097 14.8C79.6097 12.0267 80.223 9.54667 81.4497 7.36C82.703 5.14667 84.3964 3.42667 86.5297 2.2C88.6897 0.973333 91.0897 0.359999 93.7297 0.359999ZM93.7297 5.56C92.0764 5.56 90.623 5.93333 89.3697 6.68C88.1164 7.42667 87.1297 8.50667 86.4097 9.92C85.7164 11.3067 85.3697 12.9333 85.3697 14.8C85.3697 16.6667 85.7164 18.3067 86.4097 19.72C87.1297 21.1067 88.1164 22.1733 89.3697 22.92C90.623 23.6667 92.0764 24.04 93.7297 24.04C95.383 24.04 96.8364 23.6667 98.0897 22.92C99.343 22.1733 100.316 21.1067 101.01 19.72C101.73 18.3067 102.09 16.6667 102.09 14.8C102.09 12.9333 101.73 11.3067 101.01 9.92C100.316 8.50667 99.343 7.42667 98.0897 6.68C96.8364 5.93333 95.383 5.56 93.7297 5.56ZM126.811 29L120.211 18H117.731V29H112.091V0.759999H122.851C126.131 0.759999 128.625 1.56 130.331 3.16C132.065 4.76 132.931 6.86667 132.931 9.48C132.931 11.6133 132.331 13.4 131.131 14.84C129.958 16.28 128.251 17.24 126.011 17.72L133.051 29H126.811ZM117.731 14.12H122.371C125.598 14.12 127.211 12.6933 127.211 9.84C127.211 8.48 126.811 7.42667 126.011 6.68C125.238 5.90667 124.025 5.52 122.371 5.52H117.731V14.12Z" fill="#E01E1F"/>
<path d="M149.5 0.479998C153.02 0.479998 155.94 1.38666 158.26 3.2C160.58 5.01333 162.113 7.48 162.86 10.6H156.94C156.326 9.08 155.366 7.88 154.06 7C152.78 6.12 151.233 5.68 149.42 5.68C147.926 5.68 146.58 6.05333 145.38 6.8C144.18 7.54667 143.246 8.61333 142.58 10C141.913 11.3867 141.58 13.0133 141.58 14.88C141.58 16.72 141.913 18.3333 142.58 19.72C143.246 21.1067 144.18 22.1733 145.38 22.92C146.58 23.6667 147.926 24.04 149.42 24.04C151.233 24.04 152.78 23.6 154.06 22.72C155.366 21.84 156.326 20.64 156.94 19.12H162.86C162.113 22.24 160.58 24.7067 158.26 26.52C155.94 28.3333 153.02 29.24 149.5 29.24C146.806 29.24 144.42 28.64 142.34 27.44C140.286 26.2133 138.686 24.5067 137.54 22.32C136.42 20.1333 135.86 17.6533 135.86 14.88C135.86 12.08 136.42 9.58667 137.54 7.4C138.686 5.21333 140.286 3.52 142.34 2.32C144.393 1.09333 146.78 0.479998 149.5 0.479998ZM172.731 24.68H182.211V29H167.091V0.759999H172.731V24.68ZM202.768 23.32H191.448L189.448 29H183.488L193.888 1.08H200.328L210.688 29H204.728L202.768 23.32ZM201.248 19.04L197.088 7.12L192.928 19.04H201.248ZM233.132 21.28C233.132 22.72 232.772 24.0533 232.052 25.28C231.332 26.48 230.265 27.4533 228.852 28.2C227.439 28.92 225.719 29.28 223.692 29.28C221.692 29.28 219.905 28.9467 218.332 28.28C216.759 27.5867 215.492 26.6 214.532 25.32C213.599 24.04 213.065 22.5467 212.932 20.84H218.932C219.065 21.9867 219.519 22.9467 220.292 23.72C221.092 24.4667 222.145 24.84 223.452 24.84C224.625 24.84 225.519 24.5333 226.132 23.92C226.772 23.28 227.092 22.4667 227.092 21.48C227.092 20.6 226.839 19.88 226.332 19.32C225.825 18.7333 225.185 18.2667 224.412 17.92C223.639 17.5733 222.572 17.1733 221.212 16.72C219.452 16.1333 218.012 15.56 216.892 15C215.772 14.4133 214.812 13.5733 214.012 12.48C213.239 11.3867 212.852 9.96 212.852 8.2C212.852 5.77333 213.719 3.86667 215.452 2.48C217.212 1.06667 219.532 0.359999 222.412 0.359999C225.399 0.359999 227.772 1.08 229.532 2.52C231.319 3.96 232.332 5.88 232.572 8.28H226.492C226.332 7.26667 225.905 6.44 225.212 5.8C224.519 5.13333 223.572 4.8 222.372 4.8C221.332 4.8 220.492 5.08 219.852 5.64C219.212 6.17333 218.892 6.96 218.892 8C218.892 8.82667 219.132 9.52 219.612 10.08C220.119 10.6133 220.745 11.0533 221.492 11.4C222.265 11.7467 223.305 12.1333 224.612 12.56C226.425 13.2 227.892 13.8 229.012 14.36C230.159 14.92 231.132 15.76 231.932 16.88C232.732 18 233.132 19.4667 233.132 21.28ZM256.687 21.28C256.687 22.72 256.327 24.0533 255.607 25.28C254.887 26.48 253.82 27.4533 252.407 28.2C250.993 28.92 249.273 29.28 247.247 29.28C245.247 29.28 243.46 28.9467 241.887 28.28C240.313 27.5867 239.047 26.6 238.087 25.32C237.153 24.04 236.62 22.5467 236.487 20.84H242.487C242.62 21.9867 243.073 22.9467 243.847 23.72C244.647 24.4667 245.7 24.84 247.007 24.84C248.18 24.84 249.073 24.5333 249.687 23.92C250.327 23.28 250.647 22.4667 250.647 21.48C250.647 20.6 250.393 19.88 249.887 19.32C249.38 18.7333 248.74 18.2667 247.967 17.92C247.193 17.5733 246.127 17.1733 244.767 16.72C243.007 16.1333 241.567 15.56 240.447 15C239.327 14.4133 238.367 13.5733 237.567 12.48C236.793 11.3867 236.407 9.96 236.407 8.2C236.407 5.77333 237.273 3.86667 239.007 2.48C240.767 1.06667 243.087 0.359999 245.967 0.359999C248.953 0.359999 251.327 1.08 253.087 2.52C254.873 3.96 255.887 5.88 256.127 8.28H250.047C249.887 7.26667 249.46 6.44 248.767 5.8C248.073 5.13333 247.127 4.8 245.927 4.8C244.887 4.8 244.047 5.08 243.407 5.64C242.767 6.17333 242.447 6.96 242.447 8C242.447 8.82667 242.687 9.52 243.167 10.08C243.673 10.6133 244.3 11.0533 245.047 11.4C245.82 11.7467 246.86 12.1333 248.167 12.56C249.98 13.2 251.447 13.8 252.567 14.36C253.713 14.92 254.687 15.76 255.487 16.88C256.287 18 256.687 19.4667 256.687 21.28Z" fill="black"/>
</svg>
