<svg width="19" height="18" viewBox="0 0 19 18" fill="none" xmlns="http://www.w3.org/2000/svg">
<path fill-rule="evenodd" clip-rule="evenodd" d="M0.5 9C0.5 13.45 3.75 17.15 8 17.9L8.05017 17.8599C8.03344 17.8566 8.01672 17.8533 8 17.85V11.5H5.75V9H8V7C8 4.75 9.45 3.5 11.5 3.5C12.15 3.5 12.85 3.6 13.5 3.7V6H12.35C11.25 6 11 6.55 11 7.25V9H13.4L13 11.5H11V17.85C10.9833 17.8533 10.9666 17.8566 10.9498 17.8599L11 17.9C15.25 17.15 18.5 13.45 18.5 9C18.5 4.05 14.45 0 9.5 0C4.55 0 0.5 4.05 0.5 9Z" fill="#545454"/>
</svg>
