<svg width="18" height="18" viewBox="0 0 18 18" fill="none" xmlns="http://www.w3.org/2000/svg">
<path d="M9.00044 0.272949C6.63033 0.272949 6.33289 0.283313 5.402 0.325677C4.47294 0.368222 3.83878 0.515313 3.28389 0.731131C2.7099 0.95404 2.22301 1.25222 1.73793 1.73749C1.25249 2.22259 0.954321 2.70949 0.730691 3.28331C0.514334 3.8384 0.367066 4.47277 0.325249 5.40149C0.283614 6.3324 0.272705 6.63004 0.272705 9.00022C0.272705 11.3704 0.28325 11.6669 0.325431 12.5979C0.368157 13.5269 0.515243 14.1611 0.730873 14.716C0.953957 15.29 1.25213 15.7769 1.73739 16.262C2.22228 16.7475 2.70918 17.0464 3.2828 17.2693C3.83805 17.4851 4.4724 17.6322 5.40128 17.6748C6.33216 17.7171 6.62942 17.7275 8.99935 17.7275C11.3696 17.7275 11.6662 17.7171 12.5971 17.6748C13.5261 17.6322 14.161 17.4851 14.7163 17.2693C15.2901 17.0464 15.7762 16.7475 16.2611 16.262C16.7466 15.7769 17.0447 15.29 17.2684 14.7162C17.4829 14.1611 17.6302 13.5268 17.6738 12.598C17.7156 11.6671 17.7265 11.3704 17.7265 9.00022C17.7265 6.63004 17.7156 6.33259 17.6738 5.40168C17.6302 4.47259 17.4829 3.8384 17.2684 3.28349C17.0447 2.70949 16.7466 2.22259 16.2611 1.73749C15.7757 1.25204 15.2903 0.953858 14.7157 0.731131C14.1594 0.515313 13.5248 0.368222 12.5958 0.325677C11.6649 0.283313 11.3686 0.272949 8.99771 0.272949H9.00044ZM8.21756 1.84568C8.44991 1.84531 8.70918 1.84568 9.00044 1.84568C11.3306 1.84568 11.6067 1.85404 12.5269 1.89586C13.3778 1.93477 13.8396 2.07695 14.1472 2.1964C14.5545 2.35459 14.8448 2.54368 15.1501 2.84913C15.4555 3.15459 15.6446 3.44549 15.8031 3.85277C15.9226 4.16004 16.065 4.62186 16.1037 5.47277C16.1455 6.39277 16.1546 6.66913 16.1546 8.99822C16.1546 11.3273 16.1455 11.6037 16.1037 12.5237C16.0648 13.3746 15.9226 13.8364 15.8031 14.1437C15.645 14.5509 15.4555 14.8409 15.1501 15.1462C14.8446 15.4517 14.5546 15.6408 14.1472 15.7989C13.8399 15.9189 13.3778 16.0608 12.5269 16.0997C11.6069 16.1415 11.3306 16.1506 9.00044 16.1506C6.67015 16.1506 6.39397 16.1415 5.474 16.0997C4.62312 16.0604 4.16131 15.9182 3.85351 15.7988C3.44625 15.6406 3.15534 15.4515 2.8499 15.146C2.54445 14.8406 2.35537 14.5504 2.19683 14.1429C2.07738 13.8357 1.93502 13.3739 1.89629 12.5229C1.85448 11.6029 1.84611 11.3266 1.84611 8.99604C1.84611 6.66549 1.85448 6.39059 1.89629 5.47059C1.9352 4.61968 2.07738 4.15786 2.19683 3.85022C2.35501 3.44295 2.54445 3.15204 2.8499 2.84659C3.15534 2.54113 3.44625 2.35204 3.85351 2.19349C4.16113 2.07349 4.62312 1.93168 5.474 1.89259C6.27907 1.85622 6.59106 1.84531 8.21756 1.84349V1.84568ZM13.6588 3.29477C13.0807 3.29477 12.6116 3.76331 12.6116 4.34168C12.6116 4.91986 13.0807 5.38895 13.6588 5.38895C14.237 5.38895 14.7061 4.91986 14.7061 4.34168C14.7061 3.76349 14.237 3.2944 13.6588 3.2944V3.29477ZM9.00044 4.5184C6.52542 4.5184 4.51876 6.52513 4.51876 9.00022C4.51876 11.4753 6.52542 13.4811 9.00044 13.4811C11.4755 13.4811 13.4814 11.4753 13.4814 9.00022C13.4814 6.52513 11.4753 4.5184 9.00026 4.5184H9.00044ZM9.00044 6.09113C10.6069 6.09113 11.9094 7.39349 11.9094 9.00022C11.9094 10.6068 10.6069 11.9093 9.00044 11.9093C7.39376 11.9093 6.09144 10.6068 6.09144 9.00022C6.09144 7.39349 7.39376 6.09113 9.00044 6.09113Z" fill="#545454"/>
</svg>
