<svg width="17" height="15" viewBox="0 0 17 15" fill="none" xmlns="http://www.w3.org/2000/svg">
<path d="M15.3254 0.612923L0.876243 6.18598C-0.109932 6.58165 -0.104083 7.13169 0.69649 7.37696L4.30014 8.50174L5.67898 12.7292C5.84661 13.1918 5.76398 13.3754 6.24985 13.3754C6.62481 13.3754 6.79115 13.2044 6.99999 13.0004C7.13279 12.8704 7.92129 12.1038 8.8017 11.2478L12.5502 14.0174C13.2399 14.3979 13.738 14.2008 13.9098 13.3768L16.3703 1.78153C16.6223 0.771535 15.9853 0.313406 15.3254 0.612923ZM4.86569 8.24332L12.9883 3.11869C13.3938 2.87277 13.7656 3.00498 13.4604 3.27596L6.50526 9.55123L6.23445 12.4396L4.86569 8.24332Z" fill="#545454"/>
</svg>
